<svg width="45" height="45" viewBox="0 0 45 45" fill="none" xmlns="http://www.w3.org/2000/svg">
<path d="M22.2335 44.3171C34.3903 44.3171 44.2454 34.481 44.2454 22.3475C44.2454 10.214 34.3903 0.377808 22.2335 0.377808C10.0766 0.377808 0.221527 10.214 0.221527 22.3475C0.221527 34.481 10.0766 44.3171 22.2335 44.3171Z" fill="url(#paint0_linear_1:114)"/>
<path d="M31.8667 31.1014L24.4235 13.1406C24.0037 12.212 23.3796 11.759 22.557 11.759H21.8989C21.0763 11.759 20.4523 12.212 20.0324 13.1406L16.7931 20.9659H14.3422C13.6104 20.9716 13.0147 21.5604 13.009 22.2965V22.3135C13.0147 23.044 13.6104 23.6385 14.3422 23.6442H15.6584L12.5665 31.1014C12.5098 31.2656 12.4758 31.4355 12.4758 31.611C12.4758 32.03 12.6063 32.3584 12.8389 32.6132C13.0715 32.868 13.4062 32.9926 13.826 32.9926C14.104 32.9869 14.3706 32.902 14.5919 32.7378C14.8301 32.5736 14.9947 32.3358 15.1251 32.064L18.5291 23.6385H20.8891C21.6209 23.6328 22.2166 23.044 22.2223 22.3079V22.2739C22.2166 21.5435 21.6209 20.9489 20.8891 20.9433H19.6296L22.228 14.4826L29.3081 32.0583C29.4386 32.3301 29.6031 32.5679 29.8414 32.7321C30.0626 32.8963 30.3349 32.9813 30.6073 32.9869C31.0271 32.9869 31.3561 32.8623 31.5944 32.6075C31.8327 32.3527 31.9575 32.0243 31.9575 31.6053C31.9631 31.4355 31.9348 31.2599 31.8667 31.1014Z" fill="#F5F5F7"/>
<defs>
<linearGradient id="paint0_linear_1:114" x1="38.6478" y1="8.56719" x2="5.94622" y2="36.1308" gradientUnits="userSpaceOnUse">
<stop/>
<stop offset="1"/>
</linearGradient>
</defs>
</svg>
