<svg width="43" height="43" viewBox="0 0 43 43" fill="none" xmlns="http://www.w3.org/2000/svg">
<path d="M21.0873 40.1932C21.0873 41.398 22.0668 42.3865 23.2652 42.2635C33.8882 41.1735 42.1749 32.198 42.1749 21.2871C42.1749 10.3762 33.8882 1.40066 23.2652 0.310654C22.0668 0.187678 21.0873 1.17622 21.0873 2.38101V8.19827C21.0873 9.4031 22.0734 10.357 23.255 10.5951C28.2404 11.6003 31.9947 16.0053 31.9947 21.2871C31.9947 26.5689 28.2404 30.9739 23.255 31.9791C22.0734 32.2172 21.0873 33.1711 21.0873 34.3759V40.1932Z" fill="black"/>
<path d="M14.5431 4.24047C14.5431 2.75742 13.091 1.71156 11.761 2.36831C4.7927 5.81009 0 12.9887 0 21.2868C0 29.5848 4.7927 36.7634 11.761 40.2051C13.091 40.8619 14.5431 39.816 14.5431 38.333V4.24047Z" fill="black"/>
</svg>
