<svg width="50" height="50" viewBox="0 0 50 50" fill="none" xmlns="http://www.w3.org/2000/svg">
<path d="M24.1844 25.0717C23.9455 20.48 22.1938 15.8087 20.4952 11.9868C20.097 11.0844 19.9643 8.24444 23.4413 8.85489C27.741 10.3677 38.9149 14.694 39.5253 20.1084C39.7642 22.2848 38.2248 23.8242 34.2701 24.3551C30.3155 24.8593 26.0158 24.9921 24.1844 25.0717ZM24.1844 25.0717C24.4233 29.6633 24.1844 33.5649 22.9901 38.0239L24.1844 25.0717ZM22.9901 37.9973C21.8488 43.9957 18.2922 47.2072 15.5054 48.0034C1.22612 52.0643 0.642207 30.5392 2.18161 19.0733C3.11056 12.0929 6.45477 5.2718 10.5421 2.72383C12.2408 1.66217 15.93 0.282021 21.7426 2.08684C28.8292 4.31631 36.0219 8.11173 37.9063 9.22647C39.7908 10.3412 44.2497 13.765 45.6829 15.8087C48.4432 19.7634 49.558 21.754 48.2309 26.7438C46.9304 31.7601 41.9406 32.5033 40.3481 32.7687C33.4208 34.0427 29.6785 35.7148 22.9901 37.9973Z" fill="black" stroke="#F5F5F7" stroke-width="2"/>
<path d="M15.6386 31.6004C15.6916 33.6441 15.2935 35.4223 14.6831 36.6432C14.0461 37.9172 13.3825 38.1826 13.064 38.2092C12.7455 38.2092 12.082 37.9969 11.3654 36.7494C10.6753 35.5816 10.171 33.8299 10.1179 31.7862C10.0649 29.7425 10.463 27.9642 11.0734 26.7433C11.7104 25.4693 12.374 25.2039 12.6925 25.1774C13.011 25.1774 13.6745 25.3897 14.3911 26.6371C15.0546 27.805 15.5589 29.5567 15.6386 31.6004Z" fill="black" stroke="#F5F5F7" stroke-width="2"/>
</svg>
