<svg width="51" height="52" viewBox="0 0 51 52" fill="none" xmlns="http://www.w3.org/2000/svg">
<path d="M41.6092 11.058L40.2126 12.4546C47.1213 20.0105 47.1213 31.5841 40.2126 39.14L41.6092 40.5366C49.2954 32.1986 49.2954 19.3634 41.6092 11.0254V11.058Z" fill="black"/>
<path d="M12.2383 11.1787C19.7942 4.26989 31.3678 4.26989 38.9237 11.1787L40.3203 9.78201C31.9823 2.09577 19.1471 2.09577 10.8091 9.78201L12.2383 11.1787Z" fill="black"/>
<path d="M10.929 39.1535C4.02954 31.6022 4.02954 20.0333 10.929 12.4821L9.53235 11.0854C1.84611 19.4235 1.84611 32.2587 9.53235 40.5967L10.929 39.1535Z" fill="black"/>
<path d="M38.9044 40.4445C31.3485 47.3532 19.7749 47.3532 12.219 40.4445L10.8224 41.8411C19.1604 49.5273 31.9956 49.5273 40.3336 41.8411L38.9044 40.4445Z" fill="black"/>
<path d="M34.3849 21.1559C34.1056 18.2415 31.5916 17.2639 28.4119 16.9659V12.9529H25.9538V16.8914C25.3067 16.8914 24.6456 16.8914 23.9892 16.8914V12.9529H21.5497V16.9939H16.5636V19.6242C16.5636 19.6242 18.3793 19.5916 18.3513 19.6242C19.031 19.5497 19.6502 20.0246 19.748 20.7043V31.7658C19.734 31.9985 19.627 32.2127 19.45 32.3663C19.2778 32.52 19.0497 32.5991 18.8169 32.5805C18.8495 32.6084 17.0292 32.5805 17.0292 32.5805L16.5636 35.5181H21.5031V39.6243H23.9612V35.5786H25.9258V39.6056H28.3886V35.546C32.5413 35.2946 35.437 34.2704 35.8002 30.3831C36.0935 27.2546 34.6223 25.8579 32.2713 25.2946C33.7005 24.5916 34.5851 23.2881 34.3849 21.1559ZM30.9398 29.8989C30.9398 32.9529 25.707 32.6038 24.0404 32.6038V27.1847C25.707 27.1894 30.9398 26.7099 30.9398 29.8989ZM29.7992 22.2639C29.7992 25.0572 25.4324 24.7173 24.045 24.7173V19.7918C25.4324 19.7918 29.7992 19.3542 29.7992 22.2639Z" fill="black"/>
<path d="M25.5623 51.2497C11.5167 51.245 0.129318 39.8577 0.133974 25.812C0.138629 11.7664 11.526 0.379013 25.5716 0.383668C39.6126 0.388324 50.9953 11.771 51 25.812C51.0046 39.8577 39.6173 51.245 25.5716 51.2497C25.567 51.2497 25.567 51.2497 25.5623 51.2497ZM25.5623 2.36691C12.62 2.37622 2.13584 12.879 2.14515 25.8213C2.15446 38.7636 12.6573 49.2478 25.5996 49.2385C38.5326 49.2292 49.0121 38.745 49.0168 25.812C49.0214 12.8697 38.5326 2.37157 25.5903 2.36691C25.5809 2.36691 25.5716 2.36691 25.5623 2.36691Z" fill="black"/>
</svg>
