<svg width="36" height="54" viewBox="0 0 36 54" fill="none" xmlns="http://www.w3.org/2000/svg">
<path d="M16.0073 43.7898V10.0563H19.958V43.7898H16.0073Z" fill="black"/>
<path d="M35.7614 21.3399L23.7722 24.3643L21.088 12.6027L24.6669 11.7626L26.0984 17.3073C26.0984 17.3073 29.3194 12.2666 25.0248 7.05793C22.5196 4.36956 21.2669 4.20154 18.4038 3.86549C15.8986 3.52945 9.99344 4.36956 8.38294 10.7544C7.66716 14.955 8.56189 17.9794 14.1092 22.0119L13.7513 26.5486C13.7513 26.5486 7.48822 22.348 5.87772 19.4916C4.62511 17.1393 2.47777 12.6027 6.41455 6.21781C8.56188 3.02538 12.6776 0.000973389 20.0143 0.337019C23.7722 0.505041 32.7194 4.70561 31.2878 14.6189C31.1089 16.4672 30.0352 18.9875 30.0352 18.9875L35.0457 17.9794L35.7614 21.3399Z" fill="black"/>
<path d="M28.7254 47.8663C26.6257 51.0961 22.4264 53.9859 15.2525 53.4759C11.5781 53.3059 3.00448 48.7162 4.57922 38.8568C4.92917 36.9869 5.979 34.607 5.979 34.607L1.07979 35.457L0.204926 31.7172L12.103 28.9974L14.3776 40.8967L10.8782 41.5766L9.65341 35.967C9.65341 35.967 6.32894 40.8967 10.3533 46.3363C12.8029 49.0562 14.0277 49.2262 16.8273 49.7361C19.2769 50.0761 25.0509 49.3962 26.9756 43.1065C27.8505 39.0268 27.1506 35.797 21.7265 31.7172L22.0764 27.2975C22.0764 27.2975 28.2004 31.7172 29.6002 34.777C30.65 36.8169 32.5747 41.5766 28.7254 47.8663Z" fill="black"/>
</svg>
