<svg width="57" height="65" viewBox="0 0 57 65" fill="none" xmlns="http://www.w3.org/2000/svg">
<path d="M22.0964 14.9313C21.395 14.8311 21.3616 14.7977 21.6956 14.7643C22.3302 14.6641 23.7998 14.7977 24.8352 15.0315C27.24 15.5993 29.411 17.0688 31.7156 19.6406L32.3168 20.342L33.1852 20.2084C36.8926 19.6072 40.7002 20.0748 43.8732 21.5444C44.7416 21.9452 46.111 22.7468 46.278 22.9472C46.3448 23.014 46.445 23.4482 46.5118 23.8824C46.7456 25.4522 46.6454 26.6212 46.1444 27.523C45.8772 28.024 45.8772 28.1576 46.0442 28.5918C46.1778 28.9258 46.5786 29.1596 46.946 29.1596C47.7476 29.1596 48.5826 27.8904 48.9834 26.1202L49.1504 25.4188L49.451 25.7528C51.1544 27.6566 52.4904 30.2952 52.6908 32.1656L52.7576 32.6666L52.457 32.2324C51.956 31.4642 51.4884 30.9632 50.8538 30.529C49.7182 29.7608 48.5158 29.527 45.3428 29.36C42.4704 29.193 40.8338 28.9592 39.2306 28.4248C36.4918 27.523 35.089 26.354 31.8492 22.0454C30.413 20.1416 29.5112 19.1062 28.6094 18.2378C26.6388 16.3341 24.6682 15.3321 22.0964 14.9313Z" fill="black"/>
<path d="M46.9795 19.1726C47.0463 17.9034 47.2133 17.0684 47.5807 16.3002C47.7143 15.9996 47.8479 15.7324 47.8813 15.7324C47.9147 15.7324 47.8479 15.9662 47.7477 16.2334C47.4805 16.9682 47.4471 18.0036 47.6141 19.1726C47.8479 20.6756 47.9481 20.876 49.5513 22.5126C50.2861 23.2808 51.1545 24.2494 51.4885 24.6502L52.0563 25.385L51.4885 24.8506C50.7871 24.1826 49.1839 22.9134 48.8165 22.7464C48.5827 22.6128 48.5493 22.6128 48.3823 22.7798C48.2487 22.9134 48.2153 23.1138 48.2153 24.0824C48.1819 25.5854 47.9815 26.5206 47.4805 27.4892C47.2133 27.9902 47.1799 27.89 47.4137 27.3222C47.5807 26.888 47.6141 26.6876 47.6141 25.2514C47.6141 22.3456 47.2801 21.6442 45.2427 20.4752C44.7417 20.1746 43.8733 19.7404 43.3723 19.5066C42.8379 19.2728 42.4371 19.0724 42.4705 19.0724C42.5373 19.0056 44.5079 19.5734 45.2761 19.9074C46.4451 20.375 46.6455 20.4084 46.7791 20.375C46.8793 20.2748 46.9461 20.0076 46.9795 19.1726Z" fill="black"/>
<path d="M23.4659 24.1496C22.0631 22.2124 21.1613 19.2064 21.3617 16.9686L21.4285 16.2672L21.7625 16.334C22.3637 16.4342 23.3991 16.835 23.9001 17.1356C25.2361 17.9372 25.8373 19.0394 26.4051 21.7782C26.5721 22.5798 26.8059 23.515 26.9061 23.8156C27.0731 24.3166 27.7077 25.4856 28.2421 26.2204C28.6095 26.7548 28.3757 27.022 27.5407 26.9552C26.2715 26.8216 24.5681 25.6526 23.4659 24.1496Z" fill="black"/>
<path d="M45.2769 38.6786C38.6637 36.0066 36.3257 33.702 36.3257 29.7942C36.3257 29.2264 36.3591 28.7588 36.3591 28.7588C36.3925 28.7588 36.6263 28.9592 36.9269 29.193C38.2629 30.2618 39.7659 30.7294 43.9409 31.3306C46.3791 31.698 47.7819 31.9652 49.0511 32.3994C53.0925 33.7354 55.5975 36.4742 56.1987 40.1816C56.3657 41.2504 56.2655 43.2878 55.9983 44.3566C55.7645 45.1916 55.0965 46.728 54.9295 46.7614C54.8961 46.7614 54.8293 46.5944 54.8293 46.3272C54.7625 44.9244 54.0611 43.5884 52.8921 42.553C51.4893 41.3506 49.6857 40.4488 45.2769 38.6786Z" fill="black"/>
<path d="M40.5998 39.7812C40.533 39.2802 40.366 38.6456 40.2658 38.3784L40.0988 37.8774L40.3994 38.2448C40.8336 38.7458 41.1676 39.347 41.4682 40.182C41.702 40.8166 41.702 41.017 41.702 42.0524C41.702 43.0544 41.6686 43.2882 41.4682 43.856C41.1342 44.7578 40.7334 45.3924 40.0654 46.0938C38.863 47.3296 37.2932 47.9976 35.0554 48.2982C34.6546 48.3316 33.519 48.4318 32.517 48.4986C30.012 48.6322 28.342 48.8994 26.839 49.4338C26.6386 49.5006 26.4382 49.5674 26.4048 49.534C26.338 49.4672 27.3734 48.866 28.2084 48.4652C29.3774 47.8974 30.5798 47.5968 33.2184 47.1292C34.521 46.9288 35.857 46.6616 36.191 46.528C39.4976 45.4926 41.1342 42.9208 40.5998 39.7812Z" fill="black"/>
<path d="M43.6393 45.1589C42.7709 43.2551 42.5705 41.4515 43.0381 39.7481C43.1049 39.5811 43.1717 39.4141 43.2385 39.4141C43.3053 39.4141 43.5057 39.5143 43.7061 39.6479C44.1069 39.9151 44.9419 40.3827 47.0795 41.5517C49.7849 43.0213 51.3213 44.1569 52.3901 45.4595C53.3253 46.5951 53.8931 47.8977 54.1603 49.5009C54.3273 50.4027 54.2271 52.5737 53.9933 53.4755C53.2585 56.3145 51.5885 58.5857 49.1503 59.8883C48.7829 60.0887 48.4823 60.2223 48.4489 60.2223C48.4155 60.2223 48.5491 59.8883 48.7495 59.4875C49.5511 57.7841 49.6513 56.1475 49.0501 54.3105C48.6827 53.1749 47.9145 51.8055 46.3781 49.5009C44.5411 46.8289 44.1069 46.1275 43.6393 45.1589Z" fill="black"/>
<path d="M18.7561 55.3793C21.2277 53.3085 24.2671 51.8389 27.0727 51.3713C28.2751 51.1709 30.2791 51.2377 31.3813 51.5383C33.1515 52.0059 34.7547 53.0079 35.5897 54.2437C36.3912 55.4461 36.7587 56.4815 37.1261 58.7861C37.2597 59.6879 37.4267 60.6231 37.4601 60.8235C37.7273 62.0259 38.2616 62.9611 38.9296 63.4621C39.965 64.2303 41.7686 64.2637 43.5388 63.5957C43.8394 63.4955 44.1066 63.3953 44.1066 63.4287C44.1734 63.4955 43.2717 64.0967 42.6705 64.3973C41.8355 64.8315 41.1674 64.9651 40.2656 64.9651C38.6624 64.9651 37.2931 64.1301 36.1909 62.4601C35.9571 62.1261 35.4895 61.1575 35.0887 60.2557C33.9197 57.5503 33.3185 56.7487 31.9491 55.8469C30.7467 55.0787 29.2103 54.9117 28.0413 55.4795C26.5049 56.2143 26.1041 58.1849 27.1729 59.3873C27.6071 59.8883 28.4087 60.2891 29.0767 60.3893C30.3125 60.5563 31.3813 59.5877 31.3813 58.3519C31.3813 57.5503 31.0807 57.0827 30.2791 56.7153C29.2103 56.2477 28.0413 56.7821 28.0747 57.8175C28.0747 58.2517 28.2751 58.5189 28.7093 58.7193C28.9765 58.8529 28.9765 58.8529 28.7761 58.8195C27.8075 58.6191 27.5737 57.4167 28.3419 56.6485C29.2771 55.7133 31.2477 56.1141 31.9157 57.4167C32.1829 57.9511 32.2163 59.0199 31.9825 59.6879C31.4147 61.1575 29.8115 61.9257 28.1749 61.4915C27.0727 61.1909 26.6051 60.8903 25.2691 59.5209C22.9311 57.1161 22.0293 56.6485 18.6893 56.1475L18.0547 56.0473L18.7561 55.3793Z" fill="black"/>
<path fill-rule="evenodd" clip-rule="evenodd" d="M1.18842 1.63835C8.97061 11.0905 20.9612 25.7865 21.5624 26.5881C22.0634 27.2561 21.863 27.8907 21.028 28.3583C20.5604 28.6255 19.5918 28.8927 19.1242 28.8927C18.5898 28.8927 17.9552 28.6255 17.521 28.1913C17.2204 27.8907 15.9178 25.9869 12.9786 21.4111C10.7408 17.9041 8.83701 14.9983 8.80361 14.9649C8.67001 14.8981 8.67001 14.8981 12.7448 22.1793C15.3166 26.7551 16.1516 28.3917 16.1516 28.5921C16.1516 29.0263 16.018 29.2601 15.4836 29.8613C14.5818 30.8633 14.181 31.9989 13.8804 34.3703C13.5464 37.0089 12.6446 38.8793 10.0728 42.0523C8.56981 43.9227 8.33601 44.2567 7.96861 45.0249C7.50101 45.9601 7.36741 46.4945 7.30061 47.6969C7.23381 48.9661 7.36741 49.7677 7.73481 50.9701C8.06881 52.0389 8.43621 52.7403 9.33801 54.1097C10.1062 55.3121 10.5738 56.2139 10.5738 56.5479C10.5738 56.8151 10.6406 56.8151 11.843 56.5479C14.7154 55.8799 17.0868 54.7443 18.3894 53.3415C19.191 52.4731 19.3914 52.0055 19.3914 50.8031C19.3914 50.0349 19.358 49.8679 19.1576 49.4003C18.8236 48.6655 18.189 48.0643 16.8196 47.1291C15.016 45.8933 14.2478 44.8913 14.0474 43.5553C13.8804 42.4197 14.0808 41.6515 15.0828 39.5473C16.1182 37.3763 16.3854 36.4745 16.5524 34.2701C16.6526 32.8673 16.8196 32.2995 17.2204 31.8653C17.6546 31.3977 18.022 31.2307 19.0574 31.0971C20.7608 30.8633 21.863 30.4291 22.7314 29.5941C23.4996 28.8927 23.8336 28.1913 23.867 27.1559L23.9004 26.3877L23.4662 25.9201C21.8964 24.1165 0.153016 0.202148 0.0528162 0.202148C0.0194162 0.202148 0.553817 0.836748 1.18842 1.63835ZM11.4422 49.1331C11.8096 48.4985 11.6092 47.6969 11.008 47.2961C10.4402 46.9287 9.57181 47.0957 9.57181 47.5967C9.57181 47.7303 9.63861 47.8639 9.83901 47.9307C10.1396 48.0977 10.173 48.2647 9.93921 48.6321C9.70541 48.9995 9.70541 49.3335 10.006 49.5673C10.4736 49.9347 11.1082 49.7343 11.4422 49.1331Z" fill="black"/>
<path fill-rule="evenodd" clip-rule="evenodd" d="M24.9698 31.5643C24.1682 31.7981 23.4 32.6665 23.1662 33.5349C23.0326 34.0693 23.0994 35.0379 23.3332 35.3385C23.7006 35.8061 24.0346 35.9397 24.9698 35.9397C26.8068 35.9397 28.3766 35.1381 28.5436 34.1695C28.7106 33.3679 28.0092 32.2657 27.0406 31.7647C26.5396 31.4975 25.5042 31.3973 24.9698 31.5643ZM27.1074 33.2343C27.3746 32.8335 27.2744 32.3993 26.7734 32.0987C25.8716 31.5309 24.5022 31.9985 24.5022 32.8669C24.5022 33.3011 25.2036 33.7687 25.8716 33.7687C26.3058 33.7687 26.907 33.5015 27.1074 33.2343Z" fill="black"/>
</svg>
