<svg width="41" height="48" viewBox="0 0 41 48" fill="none" xmlns="http://www.w3.org/2000/svg">
<g clip-path="url(#clip0_1:140)">
<path d="M8.82124 6.95513L11.5366 5.50781L12.7149 7.13444L9.82028 8.67782L8.82124 6.95513Z" fill="black"/>
<path d="M13.3103 4.41283L16.0257 2.95911L17.204 4.59214L14.3094 6.12911L13.3103 4.41283Z" fill="black"/>
<path d="M17.6524 1.8897L20.3677 0.442383L21.5461 2.06901L18.6515 3.61239L17.6524 1.8897Z" fill="black"/>
<path d="M4.11406 9.56817L6.82938 8.12085L8.00773 9.74748L5.11309 11.2909L4.11406 9.56817Z" fill="black"/>
<path d="M36.1664 9.53618L33.4447 8.08887L32.2727 9.7155L35.1674 11.2589L36.1664 9.53618Z" fill="black"/>
<path d="M31.6773 6.9937L28.962 5.54639L27.7836 7.17302L30.6783 8.70999L31.6773 6.9937Z" fill="black"/>
<path d="M27.3352 4.47063L24.6135 3.02332L23.4416 4.65635L26.3362 6.19332L27.3352 4.47063Z" fill="black"/>
<path d="M9.69843 38.6746L12.3177 40.3012L11.4916 42.1392L8.7122 40.3973L9.69843 38.6746Z" fill="black"/>
<path d="M14.1494 41.2875L16.7622 42.9141L15.9425 44.7457L13.1568 43.0102L14.1494 41.2875Z" fill="black"/>
<path d="M18.504 43.7849L21.1169 45.4115L20.2971 47.2495L17.5114 45.5076L18.504 43.7849Z" fill="black"/>
<path d="M5.08128 35.9081L7.69414 37.5347L6.87442 39.3663L4.08865 37.6308L5.08128 35.9081Z" fill="black"/>
<path d="M35.3467 36.5101L32.7275 38.1368L33.5536 39.9747L36.333 38.2328L35.3467 36.5101Z" fill="black"/>
<path d="M30.8961 39.1228L28.2832 40.7494L29.1029 42.5874L31.8887 40.8455L30.8961 39.1228Z" fill="black"/>
<path d="M26.5411 41.6205L23.9283 43.2471L24.748 45.0851L27.5338 43.3496L26.5411 41.6205Z" fill="black"/>
<path d="M39.9642 33.7437L37.3513 35.3703L38.171 37.2082L40.9504 35.4663L39.9642 33.7437Z" fill="black"/>
<path d="M34.7641 14.2688L32.1448 15.9018L32.971 17.7334L35.7503 15.9979L34.7641 14.2688Z" fill="black"/>
<path d="M30.3131 16.8815L27.7003 18.5081L28.52 20.3461L31.2994 18.6042L30.3131 16.8815Z" fill="black"/>
<path d="M25.9585 19.3856L23.3456 21.0122L24.1654 22.8438L26.9447 21.1083L25.9585 19.3856Z" fill="black"/>
<path d="M17.1529 21.3002L14.5785 19.616L13.2592 21.1337L16.013 22.9205L17.1529 21.3002Z" fill="black"/>
<path d="M12.9134 18.3674L10.3326 16.6831L9.01337 18.2009L11.7671 19.994L12.9134 18.3674Z" fill="black"/>
<path d="M8.80846 15.4726L6.22763 13.7883L4.91479 15.3125L7.66213 17.0992L8.80846 15.4726Z" fill="black"/>
<path d="M0.489484 14.7617L0.380615 11.6878L2.35947 11.3484L2.46834 14.6273L0.489484 14.7617Z" fill="black"/>
<path d="M0.489484 20.2821L0.380615 17.2017L2.35947 16.8623L2.46834 20.1412L0.489484 20.2821Z" fill="black"/>
<path d="M0.489484 25.8985L0.380615 22.8182L2.35947 22.4788L2.46834 25.7576L0.489484 25.8985Z" fill="black"/>
<path d="M0.489484 30.9513L0.380615 27.8774L2.35947 27.538L2.46834 30.8168L0.489484 30.9513Z" fill="black"/>
<path d="M0.489484 36.4203L0.380615 33.3399L2.35947 33.0005L2.46834 36.2794L0.489484 36.4203Z" fill="black"/>
<path d="M38.7986 14.7617L38.6962 11.6878L40.675 11.3484L40.7839 14.6273L38.7986 14.7617Z" fill="black"/>
<path d="M38.7986 20.2821L38.6962 17.2017L40.675 16.8623L40.7839 20.1412L38.7986 20.2821Z" fill="black"/>
<path d="M38.7986 25.8985L38.6962 22.8182L40.675 22.4788L40.7839 25.7576L38.7986 25.8985Z" fill="black"/>
<path d="M38.7986 30.9513L38.6962 27.8774L40.675 27.538L40.7839 30.8168L38.7986 30.9513Z" fill="black"/>
<path d="M19.3942 26.3598L19.2853 23.2858L21.2706 22.9464L21.3794 26.2253L19.3942 26.3598Z" fill="black"/>
<path d="M19.3942 31.9759L19.2853 28.9019L21.2706 28.5625L21.3794 31.8414L19.3942 31.9759Z" fill="black"/>
<path d="M19.3942 37.0352L19.2853 33.9549L21.2706 33.6155L21.3794 36.8944L19.3942 37.0352Z" fill="black"/>
<path d="M19.3942 42.498L19.2853 39.424L21.2706 39.0846L21.3794 42.3635L19.3942 42.498Z" fill="black"/>
</g>
<defs>
<clipPath id="clip0_1:140">
<rect width="40.5697" height="46.8072" fill="white" transform="translate(0.380615 0.442383)"/>
</clipPath>
</defs>
</svg>
