<svg width="34" height="47" viewBox="0 0 34 47" fill="none" xmlns="http://www.w3.org/2000/svg">
<path d="M0.812088 28.8743C0.812088 27.2378 1.64293 24.4083 3.2097 21.7744C3.57573 21.1586 3.83331 21.0153 4.51115 21.4181C8.40775 23.7421 12.3489 25.9828 16.2455 28.303C16.8691 28.6729 17.301 28.6361 17.8917 28.2875C21.7418 26.0119 25.6268 23.7944 29.4653 21.5091C30.24 21.0404 30.5886 21.207 30.9933 21.9352C34.1482 27.5845 34.2547 33.2861 30.8655 38.7843C27.4531 44.3271 22.255 46.8951 15.7594 46.4749C7.34259 45.9229 0.823708 38.7708 0.812088 28.8743Z" fill="black"/>
<path d="M17.0802 24.7527C16.8866 24.6559 16.6677 24.5765 16.476 24.4661C13.0577 22.4772 9.64725 20.4746 6.21157 18.5031C5.71385 18.2164 5.60346 18.0267 5.94819 17.4941C9.52072 11.9552 13.0713 6.40334 16.5999 0.838609C17.0183 0.1782 17.1809 0.319574 17.5353 0.877339C21.073 6.43949 24.6236 11.9913 28.1871 17.5328C28.4408 17.9201 28.5125 18.1506 28.0322 18.4276C24.519 20.4514 21.0214 22.4946 17.5179 24.5339C17.4037 24.6114 17.2545 24.6695 17.0802 24.7527ZM24.9257 17.1261C24.8599 17.0099 24.7998 16.8976 24.7321 16.7891C22.288 12.97 19.8458 9.14891 17.4056 5.3259C17.0783 4.8088 16.9214 5.02184 16.691 5.38593C14.2701 9.18183 11.8422 12.9732 9.4071 16.7601C9.14758 17.1648 9.21343 17.3411 9.60077 17.5618C11.9454 18.9059 14.2804 20.2616 16.6058 21.6289C16.7348 21.7233 16.8898 21.7754 17.0497 21.7782C17.2095 21.781 17.3663 21.7342 17.4986 21.6444C19.8555 20.2597 22.2221 18.8904 24.581 17.5076C24.734 17.4321 24.9722 17.3895 24.9296 17.1261H24.9257Z" fill="black"/>
</svg>
