<svg width="51" height="42" viewBox="0 0 51 42" fill="none" xmlns="http://www.w3.org/2000/svg">
<path d="M35.3412 25.7571L35.3556 25.7544L35.3698 25.7508L35.4898 25.7208C39.8353 26.3662 43.4992 27.4166 46.0673 28.7089C47.3615 29.3601 48.3545 30.0614 49.0179 30.7833C49.6789 31.5026 49.9912 32.2167 49.9912 32.9141C49.9912 33.8576 49.4183 34.8368 48.1986 35.8003C46.9846 36.7593 45.1971 37.6454 42.9443 38.3991C38.4439 39.9048 32.1961 40.8461 25.276 40.8461C18.3559 40.8461 12.1081 39.9048 7.60768 38.3991C5.35486 37.6454 3.56739 36.7593 2.35338 35.8003C1.1337 34.8368 0.560837 33.8576 0.560837 32.9141C0.560837 32.2161 0.872006 31.5018 1.53079 30.7828C2.19211 30.061 3.18247 29.3599 4.47482 28.7087C7.04214 27.4153 10.711 26.364 15.076 25.7187C18.4317 26.3626 21.8663 26.6845 25.274 26.6846C28.6596 26.7118 32.0156 26.384 35.3412 25.7571Z" fill="black" stroke="white"/>
<path d="M31.4476 11.8977L31.6273 11.8777C35.5858 12.3218 38.9547 13.1613 41.3214 14.2416C42.5113 14.7847 43.4231 15.3775 44.0306 15.9907C44.6358 16.6017 44.9107 17.202 44.9107 17.7798C44.9107 18.4941 44.4791 19.2519 43.516 20.0122C42.5582 20.7684 41.1409 21.4703 39.3441 22.0687C35.7559 23.2637 30.7647 24.0092 25.2223 24.0092C19.6804 24.0092 14.6893 23.257 11.1009 22.0587C9.30406 21.4587 7.88644 20.7558 6.92829 20.0006C5.96427 19.2408 5.53397 18.4863 5.53397 17.7798C5.53397 17.2106 5.80869 16.614 6.41697 16.003C7.02685 15.3904 7.94174 14.7965 9.13359 14.2516C11.502 13.1688 14.8671 12.3233 18.807 11.8789C20.9136 12.2001 23.0534 12.388 25.1984 12.3611C27.2747 12.3609 29.3758 12.1972 31.4476 11.8977Z" fill="black" stroke="white"/>
<path d="M39.8846 5.45557C39.8846 5.93488 39.5942 6.47076 38.8854 7.03032C38.1822 7.58551 37.1337 8.10738 35.7934 8.55492C33.1182 9.44827 29.3905 10.0094 25.2501 10.0094C21.1097 10.0094 17.382 9.44827 14.7067 8.55492C13.3665 8.10738 12.318 7.58551 11.6148 7.03032C10.906 6.47076 10.6156 5.93488 10.6156 5.45557C10.6156 4.97626 10.906 4.44039 11.6148 3.88083C12.318 3.32563 13.3665 2.80377 14.7067 2.35622C17.382 1.46288 21.1097 0.901733 25.2501 0.901733C29.3905 0.901733 33.1182 1.46288 35.7934 2.35622C37.1337 2.80377 38.1822 3.32563 38.8854 3.88083C39.5942 4.44039 39.8846 4.97626 39.8846 5.45557Z" fill="black" stroke="white"/>
</svg>
