<svg width="48" height="48" viewBox="0 0 48 48" fill="none" xmlns="http://www.w3.org/2000/svg">
<g clip-path="url(#clip0_1:79)">
<path d="M10.4803 4.92773L46.8762 29.7787L37.8751 43.0847L1.47922 18.0381L10.4803 4.92773Z" fill="url(#paint0_linear_1:79)"/>
<path d="M46.8761 29.7787C43.7452 34.2792 33.1787 32.5182 23.1992 25.4738C13.024 18.6251 7.54504 9.42831 10.4802 4.92775C13.611 0.427183 24.1776 2.18827 34.1571 9.23263C44.3323 15.8856 49.8112 25.2781 46.8761 29.7787Z" fill="url(#paint1_linear_1:79)"/>
<path d="M37.875 42.8891C34.7442 47.3896 24.1777 45.6285 14.1981 38.5842C4.21864 31.5398 -1.45599 22.5387 1.67484 17.8424C4.80567 13.3419 15.3722 15.1029 25.3517 22.1473C35.3312 29.1917 40.8102 38.3885 37.875 42.8891Z" fill="url(#paint2_linear_1:79)"/>
<path d="M46.8761 29.7787L37.875 43.0848C34.7441 47.5853 24.1776 45.6286 14.1981 38.7799C12.2413 37.4101 10.9652 36.0235 9.20412 34.458C10.5739 34.2624 11.85 33.4966 13.611 31.5398C16.7419 28.2133 18.3073 27.4306 19.677 27.6263C21.0468 27.6263 22.6122 28.996 25.156 32.3225C27.6998 35.649 31.222 36.6274 33.3744 34.8663C33.5701 34.6707 33.7657 34.6707 33.9614 34.475C35.7225 33.1052 36.3095 32.5182 39.6361 26.2566C40.4188 24.6911 43.1582 22.1473 46.8761 23.3214C47.8545 25.8652 47.8545 28.0177 46.8761 29.7787Z" fill="black"/>
<path fill-rule="evenodd" clip-rule="evenodd" d="M45.5064 28.9959C42.767 32.9095 33.1788 30.9527 23.982 24.4954C14.5895 18.0381 9.11056 9.81963 11.85 5.9061C14.5895 1.99256 24.1777 3.94933 33.3745 10.4067C42.5713 16.864 48.0502 25.0824 45.5064 28.9959ZM36.8967 23.1256C35.5269 25.0824 30.8307 24.104 26.1344 20.9732C21.6339 17.8424 18.8944 13.7332 20.2641 11.7764C21.6339 9.81963 26.3301 10.798 31.0263 13.9288C35.5269 17.0597 38.2664 21.1689 36.8967 23.1256Z" fill="#F5F5F7"/>
<path d="M9.69753 9.42822C9.69753 9.23254 9.50186 9.03686 9.30618 9.23254C9.1105 9.42822 8.91483 9.42822 8.91483 9.62389C9.1105 10.2109 9.30618 10.6023 9.30618 10.9936C9.30618 11.1893 9.50186 11.385 9.69753 11.1893C9.89321 11.1893 10.0889 10.9936 9.89321 10.798C9.89321 10.4066 9.89321 10.0152 9.69753 9.42822Z" fill="#F5F5F7"/>
<path d="M10.676 12.5591C10.676 12.3634 10.4803 12.1677 10.2847 12.3634C10.089 12.5591 10.089 12.5591 10.089 12.7548C12.2414 17.6467 16.742 22.9299 22.6123 26.8435C22.808 27.0391 23.0037 26.8435 23.1993 26.8435C23.395 26.6478 23.1993 26.4521 23.1993 26.2564C17.1333 22.3429 12.8285 17.2553 10.676 12.5591Z" fill="#F5F5F7"/>
<path d="M34.3528 31.7355C34.1572 31.7355 33.9615 31.7355 33.9615 31.9312C33.9615 32.1268 33.9615 32.3225 34.1572 32.3225C34.7442 32.5182 35.5269 32.7139 36.1139 32.9095C36.3096 32.9095 36.5053 32.9095 36.5053 32.7139C36.5053 32.5182 36.5053 32.3225 36.3096 32.3225C35.7226 32.1268 34.9399 31.9312 34.3528 31.7355Z" fill="#F5F5F7"/>
<path d="M37.8751 32.5182C37.6794 32.5182 37.4837 32.7139 37.4837 32.9095C37.4837 33.1052 37.6794 33.3009 37.8751 33.3009C39.4405 33.4966 41.2016 33.6922 42.5713 33.4966C42.767 33.4966 42.9627 33.3009 42.9627 33.1052C42.9627 32.9095 42.767 32.7139 42.5713 32.7139C41.0059 32.9095 39.4405 32.7139 37.8751 32.5182Z" fill="#F5F5F7"/>
</g>
<defs>
<linearGradient id="paint0_linear_1:79" x1="17.6112" y1="1.3944" x2="24.8289" y2="26.1792" gradientUnits="userSpaceOnUse">
<stop/>
<stop offset="1"/>
</linearGradient>
<linearGradient id="paint1_linear_1:79" x1="23.5549" y1="-0.33674" x2="30.7728" y2="24.4483" gradientUnits="userSpaceOnUse">
<stop/>
<stop offset="1"/>
</linearGradient>
<linearGradient id="paint2_linear_1:79" x1="11.6857" y1="3.11989" x2="18.9036" y2="27.9049" gradientUnits="userSpaceOnUse">
<stop/>
<stop offset="1"/>
</linearGradient>
<clipPath id="clip0_1:79">
<rect width="46.9624" height="46.9624" fill="white" transform="translate(0.696442 0.427246)"/>
</clipPath>
</defs>
</svg>
