<svg width="38" height="49" viewBox="0 0 38 49" fill="none" xmlns="http://www.w3.org/2000/svg">
<path fill-rule="evenodd" clip-rule="evenodd" d="M2.02177 37.9138C0.832979 37.1781 0.103851 35.8827 0.103851 34.4753V26.6545C0.103851 26.3506 0.183106 26.0627 0.325761 25.8068C0.785428 25.0072 1.81571 24.7353 2.60824 25.1991L20.0914 35.4828C21.1059 36.0906 21.7399 37.1941 21.7399 38.3776V46.4703C21.7399 46.8381 21.6448 47.206 21.4546 47.5259C20.884 48.4695 19.6476 48.7733 18.7124 48.1976L2.02177 37.9138ZM28.0801 23.072C29.0946 23.6797 29.7286 24.7833 29.7286 25.9668V42.392C29.7286 42.8718 29.475 43.3196 29.047 43.5595L25.227 45.7506C25.1795 45.7826 25.1319 45.7986 25.0685 45.8146V36.6983C25.0685 35.5148 24.4503 34.4273 23.4518 33.8195L8.1084 24.5594V14.2436C8.1084 13.9398 8.18765 13.6519 8.33031 13.396C8.78997 12.5963 9.82026 12.3244 10.6128 12.7882L28.0801 23.072ZM35.7201 10.949C36.7504 11.5407 37.3844 12.6603 37.3844 13.8598V37.8499C37.3844 38.3457 37.115 38.7935 36.687 39.0334L33.0572 41.0165V24.3035C33.0572 23.12 32.439 22.0324 31.4405 21.4247L15.7484 11.9246V2.15264C15.7484 1.84876 15.8276 1.56088 15.9703 1.30499C16.43 0.505317 17.4602 0.23343 18.2528 0.697238L35.7201 10.949Z" fill="black"/>
</svg>
