<svg width="275" height="60" viewBox="0 0 275 60" fill="none" xmlns="http://www.w3.org/2000/svg">
<g clip-path="url(#clip0_1:25)">
<path d="M0 40.8459L33.1473 60L66.2946 40.8459V0.25293L54.8363 6.88012V34.2187L38.8765 43.4718V17.4404H27.4182V43.4718L11.4583 34.2187V6.88012L0 0.25293V40.8459Z" fill="black"/>
<path d="M93.4627 1.07129L76.9345 29.7171L93.4627 58.363H134.226L127.599 46.9046H100.101L93.4627 35.4463H117.778V23.988H93.4627L100.101 12.5296H127.599L134.226 1.07129H93.4627Z" fill="black"/>
<path d="M153.21 1.07129L136.682 29.7171L153.21 58.363H193.973L187.346 46.9046H159.848L153.21 35.4463H177.525V23.988H153.21L159.848 12.5296H187.346L193.973 1.07129H153.21Z" fill="black"/>
<path d="M202.976 58.363H249.628V46.9046H218.686L249.628 12.5296V1.07129H203.795V12.5296H233.918L202.976 46.9046V58.363Z" fill="black"/>
<path d="M275 1.07129H263.542V58.363H275V1.07129Z" fill="black"/>
</g>
<defs>
<clipPath id="clip0_1:25">
<rect width="275" height="59.747" fill="white" transform="translate(0 0.25293)"/>
</clipPath>
</defs>
</svg>
