<svg width="65" height="14" viewBox="0 0 65 14" fill="none" xmlns="http://www.w3.org/2000/svg">
<g clip-path="url(#clip0_54:39)">
<path d="M0 9.5118L7.76712 14L15.5342 9.5118V0L12.8493 1.55289V7.9589L9.10959 10.1271V4.0274H6.42466V10.1271L2.68493 7.9589V1.55289L0 0V9.5118Z" fill="black"/>
<path d="M21.9002 0.19165L18.0273 6.90398L21.9002 13.6163H31.4519L29.899 10.9314H23.4557L21.9002 8.24644H27.5977V5.56151H21.9002L23.4557 2.87658H29.899L31.4519 0.19165H21.9002Z" fill="black"/>
<path d="M35.9002 0.19165L32.0273 6.90398L35.9002 13.6163H45.4519L43.899 10.9314H37.4557L35.9002 8.24644H41.5977V5.56151H35.9002L37.4557 2.87658H43.899L45.4519 0.19165H35.9002Z" fill="black"/>
<path d="M47.5618 13.6163H58.4933V10.9314H51.2429L58.4933 2.87658V0.19165H47.7535V2.87658H54.8122L47.5618 10.9314V13.6163Z" fill="black"/>
<path d="M64.4384 0.19165H61.7534V13.6163H64.4384V0.19165Z" fill="black"/>
</g>
<defs>
<clipPath id="clip0_54:39">
<rect width="64.4384" height="14" fill="white"/>
</clipPath>
</defs>
</svg>
